<svg width="357" height="297" viewBox="0 0 357 297" fill="none" xmlns="http://www.w3.org/2000/svg">
<g clip-path="url(#clip0_8_2)">
<path d="M351.197 0.5H5C2.51472 0.5 0.5 2.51472 0.5 5V310.783C0.5 313.268 2.51472 315.283 5 315.283H351.197C353.682 315.283 355.697 313.268 355.697 310.783V5C355.697 2.51472 353.682 0.5 351.197 0.5Z" stroke="#111111" stroke-dasharray="10 5"/>
<path d="M217.28 51.1127L186.167 20L35.5533 170.614L66.666 201.726L217.28 51.1127Z" fill="#009AED"/>
<path d="M229.571 1.80298C231.686 1.27983 233.636 3.11432 233.242 5.25712L223.253 59.6498C222.823 61.987 219.977 62.9211 218.246 61.2928L174.551 20.1799C172.821 18.5516 173.58 15.6534 175.887 15.0828L229.571 1.80298Z" fill="#009AED"/>
<path d="M129.881 260.477L99.7603 229.966L204.794 126.275L234.915 156.786L129.881 260.477Z" fill="#009AED"/>
<path d="M127.488 226.284C139.056 230.168 145.35 243.187 137.5 252.529C135.231 255.229 132.73 257.756 130.017 260.081C121.568 267.321 111.34 272.368 100.299 274.743C89.259 277.118 77.7717 276.743 66.9239 273.654C56.0761 270.564 46.2265 264.863 38.3068 257.088C30.3871 249.314 24.6592 239.723 21.6648 229.224C18.6704 218.725 18.5086 207.664 21.1947 197.088C23.8807 186.512 29.3258 176.77 37.0149 168.784C39.9716 165.713 43.2224 162.941 46.7154 160.5C56.1031 153.938 68.0779 160.114 71.7606 170.959L75.0024 180.506C77.0264 186.467 74.8661 193.465 70.5 198C67.8568 200.745 64.5099 203.425 63.5866 207.06C62.6632 210.696 62.7188 214.498 63.7482 218.107C64.7775 221.717 66.7466 225.013 69.4691 227.686C72.1915 230.359 75.5775 232.319 79.3065 233.381C83.0356 234.443 86.9845 234.571 90.7797 233.755C94.575 232.939 98.0911 231.204 100.995 228.715C105.77 224.623 112.136 221.129 118.097 223.13L127.488 226.284Z" fill="url(#paint0_linear_8_2)"/>
<path d="M196.247 219.895C204.289 229.967 215.333 236.831 227.887 239.56C240.441 242.289 253.9 240.751 266.446 235.155C278.991 229.559 290.018 220.173 298.036 208.267C306.055 196.361 310.678 182.507 311.281 168.58C311.884 154.652 308.438 141.32 301.409 130.387C294.38 119.454 284.106 111.446 271.976 107.446C259.846 103.445 246.445 103.645 233.583 108.017C220.721 112.39 209.019 120.725 200.058 131.896L232.515 160.071C235.293 156.608 238.921 154.024 242.908 152.668C246.896 151.313 251.05 151.251 254.811 152.491C258.571 153.731 261.756 156.214 263.936 159.603C266.115 162.993 267.183 167.126 266.996 171.444C266.809 175.761 265.376 180.056 262.89 183.747C260.404 187.438 256.986 190.348 253.097 192.083C249.207 193.818 245.035 194.295 241.143 193.449C237.251 192.603 233.827 190.475 231.334 187.352L196.247 219.895Z" fill="url(#paint1_linear_8_2)"/>
<path d="M176.967 180.232C176.396 178.896 177.394 177.417 178.846 177.446L237.521 178.622C239.105 178.653 240.025 180.426 239.14 181.739L203.539 234.524C202.653 235.837 200.665 235.649 200.042 234.192L176.967 180.232Z" fill="#006CA7"/>
<path d="M184.407 239.037C185.572 237.903 187.428 237.903 188.593 239.037L233.604 282.85C235.533 284.728 234.204 288 231.511 288H141.489C138.796 288 137.467 284.728 139.396 282.85L184.407 239.037Z" fill="#006CA7"/>
</g>
<defs>
<linearGradient id="paint0_linear_8_2" x1="78" y1="213" x2="-1.50002" y2="277" gradientUnits="userSpaceOnUse">
<stop stop-color="#009AED"/>
<stop offset="0.646973" stop-color="#006CA7"/>
</linearGradient>
<linearGradient id="paint1_linear_8_2" x1="232" y1="157.5" x2="238" y2="220.5" gradientUnits="userSpaceOnUse">
<stop stop-color="#009AED"/>
<stop offset="1" stop-color="#006CA7"/>
</linearGradient>
<clipPath id="clip0_8_2">
<rect width="357" height="297" fill="white"/>
</clipPath>
</defs>
</svg>
